<svg width="24" height="24" viewBox="0 0 24 24" fill="none" xmlns="http://www.w3.org/2000/svg">
<rect width="24" height="24" rx="12" fill="#C5FF3F"/>
<path d="M18.2222 14.3333C18.2222 15.7831 18.2222 16.508 17.9858 17.0789C17.8294 17.4564 17.6002 17.7994 17.3113 18.0883C17.0224 18.3772 16.6794 18.6064 16.3019 18.7628C15.7302 19 15.0053 19 13.5556 19H11.2222C8.28844 19 6.82156 19 5.91 18.0884C5 17.1777 5 15.7108 5 12.7778V8.11111C5 7.28599 5.32778 6.49467 5.91122 5.91122C6.49467 5.32778 7.28599 5 8.11111 5" stroke="black" stroke-linecap="round" stroke-linejoin="round"/>
<path d="M10.4447 9.2778L10.7822 12.3648C10.7966 12.4914 10.8437 12.612 10.919 12.7147C10.9943 12.8174 11.0952 12.8987 11.2116 12.9505C11.7451 13.1799 12.7446 13.5556 13.5558 13.5556C14.367 13.5556 15.3664 13.1799 15.9 12.9505C16.0165 12.8988 16.1175 12.8176 16.193 12.7149C16.2684 12.6121 16.3157 12.4914 16.3301 12.3648L16.6669 9.2778M18.6113 8.50002V11.4322M13.5558 5.7778L8.11133 8.11113L13.5558 10.4445L19.0002 8.11113L13.5558 5.7778Z" stroke="black" stroke-linecap="round" stroke-linejoin="round"/>
</svg>
